<?xml version="1.0" encoding="UTF-8"?>
<svg width="915px" height="928px" viewBox="0 0 915 928" version="1.1" xmlns="http://www.w3.org/2000/svg" xmlns:xlink="http://www.w3.org/1999/xlink">
    <!-- Generator: Sketch 51.3 (57544) - http://www.bohemiancoding.com/sketch -->
    <defs></defs>
    <g id="Page-1" stroke="none" stroke-width="1" fill="none" fill-rule="evenodd">
        <g id="Rityta-1">
            <rect id="Rectangle" fill-opacity="0.149286685" fill="#000000" x="0" y="0" width="915" height="928" rx="11"></rect>
            <polygon id="Shape" fill="#FFFFFF" fill-rule="nonzero" points="202.12 358.67 180.54 377.87 225.73 377.87 225.73 571.55 247.31 552.36 247.31 358.67"></polygon>
            <path d="M316,448.71 C316.28,452.08 316.49,455.38 316.67,458.62 C316.85,461.86 316.93,464.88 316.93,467.72 L316.93,571.55 L338.51,552.36 L338.51,477.15 L316,448.71 Z M407.06,490.26 C406.89,486.77 406.79,483.46 406.79,480.35 L406.79,453.27 L337.44,365.58 C336.415075,364.307147 335.298787,363.110647 334.1,362 C332.277288,360.308209 329.95372,359.255232 327.48,359 C325.8436,358.811756 324.197123,358.724923 322.55,358.74 L298.88,358.74 L277.31,377.94 L301,377.94 C302.643909,377.919582 304.287399,378.006433 305.92,378.2 C308.283407,378.856508 310.525509,379.889766 312.56,381.26 C313.753125,382.373713 314.862781,383.573612 315.88,384.85 L407.88,501.17 C407.48,497.37 407.22,493.77 407.05,490.26 L407.06,490.26 Z M428.38,358.67 L406.79,377.87 L446.4,377.87 L446.4,571.55 L468,552.36 L468,358.67 L428.38,358.67 Z" id="Shape" fill="#FFFFFF" fill-rule="nonzero"></path>
            <polygon id="Shape" fill="#FFFFFF" fill-rule="nonzero" points="519.55 358.67 498 377.87 543.2 377.87 543.2 571.55 564.77 552.36 564.77 358.67"></polygon>
            <path d="M723.66,369.55 C719.168353,366.766844 714.42801,364.406716 709.5,362.5 C704.325796,360.497009 698.966466,359.009795 693.5,358.06 C687.779752,357.042161 681.980083,356.536823 676.17,356.55 C665.54,356.55 656.11,358.27 647.86,361.78 C640.024369,364.991224 632.918734,369.753258 626.97,375.78 C623.896595,378.932799 621.18326,382.41754 618.88,386.17 C621.271365,384.806275 623.742481,383.587414 626.28,382.52 C635.18,378.75 642.52,378.23 654.6,377.28 C659.375083,376.848642 664.176948,376.798483 668.96,377.13 C673.656452,377.561592 678.315367,378.333622 682.9,379.44 C688.351683,380.45915 693.704975,381.948034 698.9,383.89 C703.833444,385.764107 708.575262,388.108226 713.06,390.89 C717.323304,393.518179 721.272262,396.625006 724.83,400.15 L724.09,401.65 C724.169521,401.535813 724.239746,401.415426 724.3,401.29 L735.46,378.75 C731.894571,375.238593 727.93492,372.151408 723.66,369.55 Z M670,531.91 C664.654531,532.030937 659.336341,531.114008 654.34,529.21 C650.235202,527.573834 646.288745,525.56546 642.55,523.21 C639.14,521.01 636.08,519 633.39,517.15 C631.033382,515.465035 628.226064,514.524618 625.33,514.45 C623.317295,514.439377 621.340951,514.986246 619.62,516.03 C617.899811,517.019425 616.476919,518.452678 615.5,520.18 L606.5,535.53 C608.387595,535.993903 610.173908,536.800625 611.77,537.91 C614.49,539.74 617.53,541.75 620.95,543.91 C624.678331,546.271457 628.618717,548.280151 632.72,549.91 C637.718796,551.817746 643.040992,552.734781 648.39,552.61 C656.56,552.61 662.88,550.7 667.39,546.82 C671.29,543.45 673.53,538.42 674.05,531.7 C672.82,531.84 671.44,531.91 670,531.91 Z" id="Shape" fill="#FFFFFF" fill-rule="nonzero"></path>
            <path d="M738.08,504.27 C738.152853,513.861735 736.587009,523.395461 733.45,532.46 C730.519287,540.91211 725.925635,548.691736 719.94,555.34 C715.857432,559.850182 711.105157,563.705293 705.85,566.77 C708.285432,562.735361 710.296172,558.459186 711.85,554.01 C714.995336,544.947034 716.567993,535.413012 716.5,525.82 C716.5,516.773333 715.256667,509.05 712.77,502.65 C710.541886,496.650782 707.230215,491.112123 703,486.31 C699.029233,481.890974 694.35646,478.157485 689.17,475.26 C684.040077,472.415174 678.732449,469.90332 673.28,467.74 C667.873333,465.62 662.576667,463.683333 657.39,461.93 C652.648031,460.368932 648.03143,458.450084 643.58,456.19 C639.874159,454.358681 636.556775,451.829048 633.81,448.74 C631.268634,445.696767 629.940368,441.822361 630.08,437.86 C630.08,430.99 632.08,425.54 636.27,421.53 C639.82,418.06 644.93,416.08 651.68,415.59 C651.68,415.84 651.68,416.08 651.68,416.33 C651.531493,420.288926 652.85702,424.162171 655.4,427.2 C658.147826,430.29212 661.469113,432.822139 665.18,434.65 C669.631013,436.921227 674.251547,438.843664 679,440.4 C684.18,442.153333 689.473333,444.09 694.88,446.21 C700.336709,448.370962 705.647813,450.88288 710.78,453.73 C715.960103,456.611923 720.62943,460.328464 724.6,464.73 C728.824502,469.53074 732.132575,475.065661 734.36,481.06 C736.84,487.5 738.08,495.236667 738.08,504.27 Z" id="Shape" fill="#FFFFFF" fill-rule="nonzero"></path>
            <path d="M355.46,112 L356.52,239.92 C356.742127,252.313552 354.876046,264.656057 351,276.43 C347.300709,286.901062 341.771557,296.632098 334.67,305.17 C334.13,305.83 315.13,324.85 313.38,326.62 C320.639423,318.249224 326.166098,308.52146 329.64,298 C333.504293,286.220944 335.353579,273.874337 335.11,261.48 L334.05,133.57 L289.12,134 L310.53,112.39 L355.46,112 Z" id="Shape" fill="#FFFFFF" fill-rule="nonzero"></path>
            <path d="M286.1,281.44 C284.693408,285.0726 282.744632,288.471157 280.32,291.52 C277.123469,295.525007 273.034586,298.726938 268.38,300.87 C263.300592,303.13838 257.792702,304.287705 252.23,304.24 C246.680194,304.376582 241.165802,303.319402 236.06,301.14 C231.365597,299.06674 227.231788,295.906399 224,291.92 C220.521055,287.566809 217.931951,282.572082 216.38,277.22 C214.499139,270.827128 213.562578,264.193712 213.6,257.53 L212.6,133.89 L167.67,134.26 L189,113.35 L233.94,113 L234.94,236.64 C234.905504,243.313363 235.841976,249.956252 237.72,256.36 C239.287991,261.693352 241.887073,266.66728 245.37,271 C248.625497,274.981128 252.76997,278.142573 257.47,280.23 C262.576281,282.420267 268.095592,283.481148 273.65,283.34 C277.872434,283.342949 282.070649,282.702257 286.1,281.44 Z" id="Shape" fill="#FFFFFF" fill-rule="nonzero"></path>
            <path d="M418.34,202.81 C418.61,206.17 418.85,209.48 419.02,212.72 C419.19,215.96 419.28,218.97 419.28,221.82 L419.28,325.65 L440.86,306.43 L440.86,231.25 L418.34,202.81 Z M509.4,244.35 C509.23,240.84 509.14,237.56 509.14,234.45 L509.14,207.36 L439.79,119.66 C438.756293,118.394763 437.644102,117.195734 436.46,116.07 C435.557753,115.267221 434.548044,114.594082 433.46,114.07 C432.319871,113.559579 431.109824,113.222519 429.87,113.07 C428.235509,112.858551 426.587922,112.764976 424.94,112.79 L401.25,112.79 L379.66,132 L403.33,132 C404.976898,131.98249 406.623321,132.06598 408.26,132.25 C409.498865,132.391107 410.707342,132.72867 411.84,133.25 C412.943948,133.767184 413.957019,134.459449 414.84,135.3 C416.036368,136.413554 417.14936,137.613446 418.17,138.89 L510.17,255.18 C509.85,251.46 509.58,247.84 509.4,244.35 Z M530.72,112.75 L509.14,132 L548.75,132 L548.75,325.65 L570.34,306.43 L570.34,112.75 L530.72,112.75 Z" id="Shape" fill="#FFFFFF" fill-rule="nonzero"></path>
            <path d="M617.92,112.75 L596.33,132 L721,132 L721,166.55 L742.58,147.36 L742.58,112.75 L617.92,112.75 Z M663.1,196.37 L663.1,166.52 L641.53,166.52 L641.53,215.57 L707.72,215.57 L707.72,250.27 L729.31,231.06 L729.31,196.37 L663.1,196.37 Z M641.53,250.27 L641.53,325.65 L663.1,306.43 L663.1,250.27 L641.53,250.27 Z" id="Shape" fill="#FFFFFF" fill-rule="nonzero"></path>
            <path d="M313.25,602.75 L291.67,621.94 L336.86,621.94 L336.86,815.63 L358.44,796.44 L358.44,602.75 L313.25,602.75 Z M234.55,683.75 L234.55,602.75 L189.35,602.75 L167.78,621.94 L213,621.94 L213,702.94 L291.69,702.94 L291.69,683.71 L234.55,683.75 Z M213,733.77 L213,815.63 L234.57,796.44 L234.57,733.77 L213,733.77 Z" id="Shape" fill="#FFFFFF" fill-rule="nonzero"></path>
            <path d="M451.23,761.89 L451.23,734.94 L429.66,734.94 L429.66,781.08 L509.14,781.08 L509.14,815.63 L530.72,796.44 L530.72,761.89 L451.23,761.89 Z M406.05,602.75 L384.46,621.94 L509.14,621.94 L509.14,656.52 L530.72,637.32 L530.72,602.75 L406.05,602.75 Z M451.23,682.53 L451.23,656.53 L429.66,656.53 L429.66,701.73 L490.53,701.73 L490.53,734.95 L512.12,715.76 L512.12,682.53 L451.23,682.53 Z" id="Shape" fill="#FFFFFF" fill-rule="nonzero"></path>
            <path d="M747.64,708.83 C747.791113,723.302877 745.338765,737.685016 740.4,751.29 C735.901377,763.749745 728.966513,775.188871 720,784.94 C711.119074,794.487017 700.310215,802.037198 688.29,807.09 C683.159299,809.280303 677.845366,811.01369 672.41,812.27 C682.091421,807.739535 690.894011,801.530324 698.41,793.93 C707.276897,784.871134 714.213504,774.107316 718.8,762.29 C728.480013,736.580995 728.480013,708.229005 718.8,682.52 C714.230053,670.709014 707.290985,659.958394 698.41,650.93 C689.371764,641.891124 678.58075,634.795802 666.7,630.08 C654.34,625.06 640.63,622.546667 625.57,622.54 L551.64,622.54 L571.93,602.75 L647.16,602.75 C662.226667,602.75 675.936667,605.416667 688.29,610.75 C700.289,615.850319 711.089825,623.4017 720,632.92 C728.978034,642.635848 735.914989,654.05462 740.4,666.5 C745.331201,680.061941 747.783556,694.400087 747.64,708.83 Z" id="Shape" fill="#FFFFFF" fill-rule="nonzero"></path>
            <path d="M670.79,757.4 C669.291118,759.924805 667.574597,762.313881 665.66,764.54 C660.986813,769.913889 655.13911,774.139701 648.57,776.89 C641.280021,779.891698 633.452559,781.368706 625.57,781.23 L595.57,781.23 L595.57,656.56 L617.16,656.56 L617.16,762 L647.16,762 C655.043231,762.146672 662.872298,760.669361 670.16,757.66 C670.376637,757.590379 670.587317,757.503431 670.79,757.4 Z" id="Shape" fill="#FFFFFF" fill-rule="nonzero"></path>
        </g>
    </g>
</svg>